<svg width="100%" height="100%" viewBox="0 0 44 40" fill="none" xmlns="http://www.w3.org/2000/svg">
<path d="M43.9412 39.4565H42.5688V38.0652H43.9412V39.4565Z" fill="#ECD979"/>
<path d="M42.5686 39.4565H41.1963V38.0652H42.5686V39.4565Z" fill="#ECD979"/>
<path d="M37.0794 39.4565H35.707V38.0652H37.0794V39.4565Z" fill="#ECD979"/>
<path d="M35.7073 39.4565H34.335V38.0652H35.7073V39.4565Z" fill="#ECD979"/>
<path d="M34.3347 39.4565H32.9624V38.0652H34.3347V39.4565Z" fill="#ECD979"/>
<path d="M26.1008 39.4565H24.7285V38.0652H26.1008V39.4565Z" fill="#ECD979"/>
<path d="M17.8674 39.4565H16.4951V38.0652H17.8674V39.4565Z" fill="#ECD979"/>
<path d="M9.63355 39.4565H8.26123V38.0652H9.63355V39.4565Z" fill="#ECD979"/>
<path d="M8.26099 39.4565H6.88867V38.0652H8.26099V39.4565Z" fill="#ECD979"/>
<path d="M6.88892 39.4565H5.5166V38.0652H6.88892V39.4565Z" fill="#ECD979"/>
<path d="M1.39966 39.4565H0.0273438V38.0652H1.39966V39.4565Z" fill="#ECD979"/>
<path d="M43.9412 38.0652H42.5688V36.6739H43.9412V38.0652Z" fill="#ECD979"/>
<path d="M38.4519 38.0652H37.0796V36.6739H38.4519V38.0652Z" fill="#ECD979"/>
<path d="M37.0794 38.0652H35.707V36.6739H37.0794V38.0652Z" fill="#ECD979"/>
<path d="M35.7073 38.0652H34.335V36.6739H35.7073V38.0652Z" fill="#ECD979"/>
<path d="M26.1008 38.0652H24.7285V36.6739H26.1008V38.0652Z" fill="#ECD979"/>
<path d="M24.7283 38.0652H23.356V36.6739H24.7283V38.0652Z" fill="#ECD979"/>
<path d="M19.2395 38.0652H17.8672V36.6739H19.2395V38.0652Z" fill="#ECD979"/>
<path d="M17.8674 38.0652H16.4951V36.6739H17.8674V38.0652Z" fill="#ECD979"/>
<path d="M8.26099 38.0652H6.88867V36.6739H8.26099V38.0652Z" fill="#ECD979"/>
<path d="M6.88892 38.0652H5.5166V36.6739H6.88892V38.0652Z" fill="#ECD979"/>
<path d="M5.51636 38.0652H4.14404V36.6739H5.51636V38.0652Z" fill="#ECD979"/>
<path d="M39.824 36.6739H38.4517V35.2826H39.824V36.6739Z" fill="#ECD979"/>
<path d="M38.4519 36.6739H37.0796V35.2826H38.4519V36.6739Z" fill="#ECD979"/>
<path d="M37.0794 36.6739H35.707V35.2826H37.0794V36.6739Z" fill="#ECD979"/>
<path d="M26.1008 36.6739H24.7285V35.2826H26.1008V36.6739Z" fill="#ECD979"/>
<path d="M24.7283 36.6739H23.356V35.2826H24.7283V36.6739Z" fill="#ECD979"/>
<path d="M23.3562 36.6739H21.9839V35.2826H23.3562V36.6739Z" fill="#ECD979"/>
<path d="M20.6121 36.6739H19.2397V35.2826H20.6121V36.6739Z" fill="#ECD979"/>
<path d="M19.2395 36.6739H17.8672V35.2826H19.2395V36.6739Z" fill="#ECD979"/>
<path d="M17.8674 36.6739H16.4951V35.2826H17.8674V36.6739Z" fill="#ECD979"/>
<path d="M6.88892 36.6739H5.5166V35.2826H6.88892V36.6739Z" fill="#ECD979"/>
<path d="M5.51636 36.6739H4.14404V35.2826H5.51636V36.6739Z" fill="#ECD979"/>
<path d="M4.14429 36.6739H2.77197V35.2826H4.14429V36.6739Z" fill="#ECD979"/>
<path d="M41.1965 35.2826H39.8242V33.8913H41.1965V35.2826Z" fill="#ECD979"/>
<path d="M39.824 35.2826H38.4517V33.8913H39.824V35.2826Z" fill="#ECD979"/>
<path d="M38.4519 35.2826H37.0796V33.8913H38.4519V35.2826Z" fill="#ECD979"/>
<path d="M31.5901 35.2826H30.2178V33.8913H31.5901V35.2826Z" fill="#ECD979"/>
<path d="M30.218 35.2826H28.8457V33.8913H30.218V35.2826Z" fill="#ECD979"/>
<path d="M28.8455 35.2826H27.4731V33.8913H28.8455V35.2826Z" fill="#ECD979"/>
<path d="M24.7283 35.2826H23.356V33.8913H24.7283V35.2826Z" fill="#ECD979"/>
<path d="M23.3562 35.2826H21.9839V33.8913H23.3562V35.2826Z" fill="#ECD979"/>
<path d="M20.6121 35.2826H19.2397V33.8913H20.6121V35.2826Z" fill="#ECD979"/>
<path d="M19.2395 35.2826H17.8672V33.8913H19.2395V35.2826Z" fill="#ECD979"/>
<path d="M15.1228 35.2826H13.7505V33.8913H15.1228V35.2826Z" fill="#ECD979"/>
<path d="M13.7502 35.2826H12.3779V33.8913H13.7502V35.2826Z" fill="#ECD979"/>
<path d="M12.3782 35.2826H11.0059V33.8913H12.3782V35.2826Z" fill="#ECD979"/>
<path d="M5.51636 35.2826H4.14404V33.8913H5.51636V35.2826Z" fill="#ECD979"/>
<path d="M4.14429 35.2826H2.77197V33.8913H4.14429V35.2826Z" fill="#ECD979"/>
<path d="M2.77173 35.2826H1.39941V33.8913H2.77173V35.2826Z" fill="#ECD979"/>
<path d="M42.5686 33.8913H41.1963V32.5H42.5686V33.8913Z" fill="#ECD979"/>
<path d="M41.1965 33.8913H39.8242V32.5H41.1965V33.8913Z" fill="#ECD979"/>
<path d="M39.824 33.8913H38.4517V32.5H39.824V33.8913Z" fill="#ECD979"/>
<path d="M30.218 33.8913H28.8457V32.5H30.218V33.8913Z" fill="#ECD979"/>
<path d="M28.8455 33.8913H27.4731V32.5H28.8455V33.8913Z" fill="#ECD979"/>
<path d="M27.4734 33.8913H26.1011V32.5H27.4734V33.8913Z" fill="#ECD979"/>
<path d="M23.3562 33.8913H21.9839V32.5H23.3562V33.8913Z" fill="#ECD979"/>
<path d="M20.6121 33.8913H19.2397V32.5H20.6121V33.8913Z" fill="#ECD979"/>
<path d="M16.4949 33.8913H15.1226V32.5H16.4949V33.8913Z" fill="#ECD979"/>
<path d="M15.1228 33.8913H13.7505V32.5H15.1228V33.8913Z" fill="#ECD979"/>
<path d="M13.7502 33.8913H12.3779V32.5H13.7502V33.8913Z" fill="#ECD979"/>
<path d="M4.14429 33.8913H2.77197V32.5H4.14429V33.8913Z" fill="#ECD979"/>
<path d="M2.77173 33.8913H1.39941V32.5H2.77173V33.8913Z" fill="#ECD979"/>
<path d="M1.39966 33.8913H0.0273438V32.5H1.39966V33.8913Z" fill="#ECD979"/>
<path d="M42.5686 32.5H41.1963V31.1087H42.5686V32.5Z" fill="#ECD979"/>
<path d="M41.1965 32.5H39.8242V31.1087H41.1965V32.5Z" fill="#ECD979"/>
<path d="M28.8455 32.5H27.4731V31.1087H28.8455V32.5Z" fill="#ECD979"/>
<path d="M27.4734 32.5H26.1011V31.1087H27.4734V32.5Z" fill="#ECD979"/>
<path d="M26.1008 32.5H24.7285V31.1087H26.1008V32.5Z" fill="#ECD979"/>
<path d="M17.8674 32.5H16.4951V31.1087H17.8674V32.5Z" fill="#ECD979"/>
<path d="M16.4949 32.5H15.1226V31.1087H16.4949V32.5Z" fill="#ECD979"/>
<path d="M15.1228 32.5H13.7505V31.1087H15.1228V32.5Z" fill="#ECD979"/>
<path d="M2.77173 32.5H1.39941V31.1087H2.77173V32.5Z" fill="#ECD979"/>
<path d="M1.39966 32.5H0.0273438V31.1087H1.39966V32.5Z" fill="#ECD979"/>
<path d="M42.5686 31.1087H41.1963V29.7174H42.5686V31.1087Z" fill="#ECD979"/>
<path d="M35.7073 31.1087H34.335V29.7174H35.7073V31.1087Z" fill="#ECD979"/>
<path d="M23.3562 31.1087H21.9839V29.7174H23.3562V31.1087Z" fill="#ECD979"/>
<path d="M20.6121 31.1087H19.2397V29.7174H20.6121V31.1087Z" fill="#ECD979"/>
<path d="M8.26099 31.1087H6.88867V29.7174H8.26099V31.1087Z" fill="#ECD979"/>
<path d="M1.39966 31.1087H0.0273438V29.7174H1.39966V31.1087Z" fill="#ECD979"/>
<path d="M35.7073 29.7174H34.335V28.3261H35.7073V29.7174Z" fill="#ECD979"/>
<path d="M34.3347 29.7174H32.9624V28.3261H34.3347V29.7174Z" fill="#ECD979"/>
<path d="M24.7283 29.7174H23.356V28.3261H24.7283V29.7174Z" fill="#ECD979"/>
<path d="M23.3562 29.7174H21.9839V28.3261H23.3562V29.7174Z" fill="#ECD979"/>
<path d="M20.6121 29.7174H19.2397V28.3261H20.6121V29.7174Z" fill="#ECD979"/>
<path d="M19.2395 29.7174H17.8672V28.3261H19.2395V29.7174Z" fill="#ECD979"/>
<path d="M9.63355 29.7174H8.26123V28.3261H9.63355V29.7174Z" fill="#ECD979"/>
<path d="M8.26099 29.7174H6.88867V28.3261H8.26099V29.7174Z" fill="#ECD979"/>
<path d="M35.7073 28.3261H34.335V26.9348H35.7073V28.3261Z" fill="#ECD979"/>
<path d="M34.3347 28.3261H32.9624V26.9348H34.3347V28.3261Z" fill="#ECD979"/>
<path d="M32.9627 28.3261H31.5903V26.9348H32.9627V28.3261Z" fill="#ECD979"/>
<path d="M26.1008 28.3261H24.7285V26.9348H26.1008V28.3261Z" fill="#ECD979"/>
<path d="M24.7283 28.3261H23.356V26.9348H24.7283V28.3261Z" fill="#ECD979"/>
<path d="M19.2395 28.3261H17.8672V26.9348H19.2395V28.3261Z" fill="#ECD979"/>
<path d="M17.8674 28.3261H16.4951V26.9348H17.8674V28.3261Z" fill="#ECD979"/>
<path d="M11.0056 28.3261H9.6333V26.9348H11.0056V28.3261Z" fill="#ECD979"/>
<path d="M9.63355 28.3261H8.26123V26.9348H9.63355V28.3261Z" fill="#ECD979"/>
<path d="M8.26099 28.3261H6.88867V26.9348H8.26099V28.3261Z" fill="#ECD979"/>
<path d="M34.3347 26.9348H32.9624V25.5435H34.3347V26.9348Z" fill="#ECD979"/>
<path d="M32.9627 26.9348H31.5903V25.5435H32.9627V26.9348Z" fill="#ECD979"/>
<path d="M27.4734 26.9348H26.1011V25.5435H27.4734V26.9348Z" fill="#ECD979"/>
<path d="M26.1008 26.9348H24.7285V25.5435H26.1008V26.9348Z" fill="#ECD979"/>
<path d="M17.8674 26.9348H16.4951V25.5435H17.8674V26.9348Z" fill="#ECD979"/>
<path d="M16.4949 26.9348H15.1226V25.5435H16.4949V26.9348Z" fill="#ECD979"/>
<path d="M11.0056 26.9348H9.6333V25.5435H11.0056V26.9348Z" fill="#ECD979"/>
<path d="M9.63355 26.9348H8.26123V25.5435H9.63355V26.9348Z" fill="#ECD979"/>
<path d="M39.824 25.5435H38.4517V24.1522H39.824V25.5435Z" fill="#ECD979"/>
<path d="M38.4519 25.5435H37.0796V24.1522H38.4519V25.5435Z" fill="#ECD979"/>
<path d="M37.0794 25.5435H35.707V24.1522H37.0794V25.5435Z" fill="#ECD979"/>
<path d="M32.9627 25.5435H31.5903V24.1522H32.9627V25.5435Z" fill="#ECD979"/>
<path d="M28.8455 25.5435H27.4731V24.1522H28.8455V25.5435Z" fill="#ECD979"/>
<path d="M27.4734 25.5435H26.1011V24.1522H27.4734V25.5435Z" fill="#ECD979"/>
<path d="M16.4949 25.5435H15.1226V24.1522H16.4949V25.5435Z" fill="#ECD979"/>
<path d="M15.1228 25.5435H13.7505V24.1522H15.1228V25.5435Z" fill="#ECD979"/>
<path d="M11.0056 25.5435H9.6333V24.1522H11.0056V25.5435Z" fill="#ECD979"/>
<path d="M6.88892 25.5435H5.5166V24.1522H6.88892V25.5435Z" fill="#ECD979"/>
<path d="M5.51636 25.5435H4.14404V24.1522H5.51636V25.5435Z" fill="#ECD979"/>
<path d="M4.14429 25.5435H2.77197V24.1522H4.14429V25.5435Z" fill="#ECD979"/>
<path d="M43.9412 24.1522H42.5688V22.7609H43.9412V24.1522Z" fill="#ECD979"/>
<path d="M38.4519 24.1522H37.0796V22.7609H38.4519V24.1522Z" fill="#ECD979"/>
<path d="M37.0794 24.1522H35.707V22.7609H37.0794V24.1522Z" fill="#ECD979"/>
<path d="M35.7073 24.1522H34.335V22.7609H35.7073V24.1522Z" fill="#ECD979"/>
<path d="M30.218 24.1522H28.8457V22.7609H30.218V24.1522Z" fill="#ECD979"/>
<path d="M28.8455 24.1522H27.4731V22.7609H28.8455V24.1522Z" fill="#ECD979"/>
<path d="M15.1228 24.1522H13.7505V22.7609H15.1228V24.1522Z" fill="#ECD979"/>
<path d="M13.7502 24.1522H12.3779V22.7609H13.7502V24.1522Z" fill="#ECD979"/>
<path d="M8.26099 24.1522H6.88867V22.7609H8.26099V24.1522Z" fill="#ECD979"/>
<path d="M6.88892 24.1522H5.5166V22.7609H6.88892V24.1522Z" fill="#ECD979"/>
<path d="M5.51636 24.1522H4.14404V22.7609H5.51636V24.1522Z" fill="#ECD979"/>
<path d="M43.9412 22.7609H42.5688V21.3696H43.9412V22.7609Z" fill="#ECD979"/>
<path d="M42.5686 22.7609H41.1963V21.3696H42.5686V22.7609Z" fill="#ECD979"/>
<path d="M37.0794 22.7609H35.707V21.3696H37.0794V22.7609Z" fill="#ECD979"/>
<path d="M35.7073 22.7609H34.335V21.3696H35.7073V22.7609Z" fill="#ECD979"/>
<path d="M34.3347 22.7609H32.9624V21.3696H34.3347V22.7609Z" fill="#ECD979"/>
<path d="M31.5901 22.7609H30.2178V21.3696H31.5901V22.7609Z" fill="#ECD979"/>
<path d="M30.218 22.7609H28.8457V21.3696H30.218V22.7609Z" fill="#ECD979"/>
<path d="M21.9841 22.7609H20.6118V21.3696H21.9841V22.7609Z" fill="#ECD979"/>
<path d="M13.7502 22.7609H12.3779V21.3696H13.7502V22.7609Z" fill="#ECD979"/>
<path d="M12.3782 22.7609H11.0059V21.3696H12.3782V22.7609Z" fill="#ECD979"/>
<path d="M9.63355 22.7609H8.26123V21.3696H9.63355V22.7609Z" fill="#ECD979"/>
<path d="M8.26099 22.7609H6.88867V21.3696H8.26099V22.7609Z" fill="#ECD979"/>
<path d="M6.88892 22.7609H5.5166V21.3696H6.88892V22.7609Z" fill="#ECD979"/>
<path d="M1.37232 21.3696H0V19.9783H1.37232V21.3696Z" fill="#ECD979"/>
<path d="M2.77173 21.3696H1.39941V19.9783H2.77173V21.3696Z" fill="#ECD979"/>
<path d="M1.37232 22.7609H0V21.3696H1.37232V22.7609Z" fill="#ECD979"/>
<path d="M1.37232 19.9783H0V18.587H1.37232V19.9783Z" fill="#ECD979"/>
<path d="M43.9412 21.3696H42.5688V19.9783H43.9412V21.3696Z" fill="#ECD979"/>
<path d="M42.5686 21.3696H41.1963V19.9783H42.5686V21.3696Z" fill="#ECD979"/>
<path d="M41.1965 21.3696H39.8242V19.9783H41.1965V21.3696Z" fill="#ECD979"/>
<path d="M23.3562 21.3696H21.9839V19.9783H23.3562V21.3696Z" fill="#ECD979"/>
<path d="M21.9841 21.3696H20.6118V19.9783H21.9841V21.3696Z" fill="#ECD979"/>
<path d="M20.6121 21.3696H19.2397V19.9783H20.6121V21.3696Z" fill="#ECD979"/>
<path d="M43.9412 19.9783H42.5688V18.587H43.9412V19.9783Z" fill="#ECD979"/>
<path d="M42.5686 19.9783H41.1963V18.587H42.5686V19.9783Z" fill="#ECD979"/>
<path d="M37.0794 19.9783H35.707V18.587H37.0794V19.9783Z" fill="#ECD979"/>
<path d="M35.7073 19.9783H34.335V18.587H35.7073V19.9783Z" fill="#ECD979"/>
<path d="M34.3347 19.9783H32.9624V18.587H34.3347V19.9783Z" fill="#ECD979"/>
<path d="M31.5901 19.9783H30.2178V18.587H31.5901V19.9783Z" fill="#ECD979"/>
<path d="M30.218 19.9783H28.8457V18.587H30.218V19.9783Z" fill="#ECD979"/>
<path d="M21.9841 19.9783H20.6118V18.587H21.9841V19.9783Z" fill="#ECD979"/>
<path d="M13.7502 19.9783H12.3779V18.587H13.7502V19.9783Z" fill="#ECD979"/>
<path d="M12.3782 19.9783H11.0059V18.587H12.3782V19.9783Z" fill="#ECD979"/>
<path d="M9.63355 19.9783H8.26123V18.587H9.63355V19.9783Z" fill="#ECD979"/>
<path d="M8.26099 19.9783H6.88867V18.587H8.26099V19.9783Z" fill="#ECD979"/>
<path d="M6.88892 19.9783H5.5166V18.587H6.88892V19.9783Z" fill="#ECD979"/>
<path d="M43.9412 18.5869H42.5688V17.1956H43.9412V18.5869Z" fill="#ECD979"/>
<path d="M38.4519 18.5869H37.0796V17.1956H38.4519V18.5869Z" fill="#ECD979"/>
<path d="M37.0794 18.5869H35.707V17.1956H37.0794V18.5869Z" fill="#ECD979"/>
<path d="M35.7073 18.5869H34.335V17.1956H35.7073V18.5869Z" fill="#ECD979"/>
<path d="M30.218 18.5869H28.8457V17.1956H30.218V18.5869Z" fill="#ECD979"/>
<path d="M28.8455 18.5869H27.4731V17.1956H28.8455V18.5869Z" fill="#ECD979"/>
<path d="M15.1228 18.5869H13.7505V17.1956H15.1228V18.5869Z" fill="#ECD979"/>
<path d="M13.7502 18.5869H12.3779V17.1956H13.7502V18.5869Z" fill="#ECD979"/>
<path d="M8.26099 18.5869H6.88867V17.1956H8.26099V18.5869Z" fill="#ECD979"/>
<path d="M6.88892 18.5869H5.5166V17.1956H6.88892V18.5869Z" fill="#ECD979"/>
<path d="M5.51636 18.5869H4.14404V17.1956H5.51636V18.5869Z" fill="#ECD979"/>
<path d="M39.824 17.1956H38.4517V15.8043H39.824V17.1956Z" fill="#ECD979"/>
<path d="M38.4519 17.1956H37.0796V15.8043H38.4519V17.1956Z" fill="#ECD979"/>
<path d="M37.0794 17.1956H35.707V15.8043H37.0794V17.1956Z" fill="#ECD979"/>
<path d="M32.9627 17.1956H31.5903V15.8043H32.9627V17.1956Z" fill="#ECD979"/>
<path d="M28.8455 17.1956H27.4731V15.8043H28.8455V17.1956Z" fill="#ECD979"/>
<path d="M27.4734 17.1956H26.1011V15.8043H27.4734V17.1956Z" fill="#ECD979"/>
<path d="M16.4949 17.1956H15.1226V15.8043H16.4949V17.1956Z" fill="#ECD979"/>
<path d="M15.1228 17.1956H13.7505V15.8043H15.1228V17.1956Z" fill="#ECD979"/>
<path d="M11.0056 17.1956H9.6333V15.8043H11.0056V17.1956Z" fill="#ECD979"/>
<path d="M6.88892 17.1956H5.5166V15.8043H6.88892V17.1956Z" fill="#ECD979"/>
<path d="M5.51636 17.1956H4.14404V15.8043H5.51636V17.1956Z" fill="#ECD979"/>
<path d="M4.14429 17.1956H2.77197V15.8043H4.14429V17.1956Z" fill="#ECD979"/>
<path d="M34.3347 15.8044H32.9624V14.413H34.3347V15.8044Z" fill="#ECD979"/>
<path d="M32.9627 15.8044H31.5903V14.413H32.9627V15.8044Z" fill="#ECD979"/>
<path d="M27.4734 15.8044H26.1011V14.413H27.4734V15.8044Z" fill="#ECD979"/>
<path d="M26.1008 15.8044H24.7285V14.413H26.1008V15.8044Z" fill="#ECD979"/>
<path d="M17.8674 15.8044H16.4951V14.413H17.8674V15.8044Z" fill="#ECD979"/>
<path d="M16.4949 15.8044H15.1226V14.413H16.4949V15.8044Z" fill="#ECD979"/>
<path d="M11.0056 15.8044H9.6333V14.413H11.0056V15.8044Z" fill="#ECD979"/>
<path d="M9.63355 15.8044H8.26123V14.413H9.63355V15.8044Z" fill="#ECD979"/>
<path d="M35.7073 14.413H34.335V13.0217H35.7073V14.413Z" fill="#ECD979"/>
<path d="M34.3347 14.413H32.9624V13.0217H34.3347V14.413Z" fill="#ECD979"/>
<path d="M32.9627 14.413H31.5903V13.0217H32.9627V14.413Z" fill="#ECD979"/>
<path d="M26.1008 14.413H24.7285V13.0217H26.1008V14.413Z" fill="#ECD979"/>
<path d="M24.7283 14.413H23.356V13.0217H24.7283V14.413Z" fill="#ECD979"/>
<path d="M19.2395 14.413H17.8672V13.0217H19.2395V14.413Z" fill="#ECD979"/>
<path d="M17.8674 14.413H16.4951V13.0217H17.8674V14.413Z" fill="#ECD979"/>
<path d="M11.0056 14.413H9.6333V13.0217H11.0056V14.413Z" fill="#ECD979"/>
<path d="M9.63355 14.413H8.26123V13.0217H9.63355V14.413Z" fill="#ECD979"/>
<path d="M8.26099 14.413H6.88867V13.0217H8.26099V14.413Z" fill="#ECD979"/>
<path d="M35.7073 13.0217H34.335V11.6304H35.7073V13.0217Z" fill="#ECD979"/>
<path d="M34.3347 13.0217H32.9624V11.6304H34.3347V13.0217Z" fill="#ECD979"/>
<path d="M24.7283 13.0217H23.356V11.6304H24.7283V13.0217Z" fill="#ECD979"/>
<path d="M23.3562 13.0217H21.9839V11.6304H23.3562V13.0217Z" fill="#ECD979"/>
<path d="M20.6121 13.0217H19.2397V11.6304H20.6121V13.0217Z" fill="#ECD979"/>
<path d="M19.2395 13.0217H17.8672V11.6304H19.2395V13.0217Z" fill="#ECD979"/>
<path d="M9.63355 13.0217H8.26123V11.6304H9.63355V13.0217Z" fill="#ECD979"/>
<path d="M8.26099 13.0217H6.88867V11.6304H8.26099V13.0217Z" fill="#ECD979"/>
<path d="M35.7073 11.6304H34.335V10.2391H35.7073V11.6304Z" fill="#ECD979"/>
<path d="M23.3562 11.6304H21.9839V10.2391H23.3562V11.6304Z" fill="#ECD979"/>
<path d="M20.6121 11.6304H19.2397V10.2391H20.6121V11.6304Z" fill="#ECD979"/>
<path d="M8.26099 11.6304H6.88867V10.2391H8.26099V11.6304Z" fill="#ECD979"/>
<path d="M42.5686 10.2391H41.1963V8.8478H42.5686V10.2391Z" fill="#ECD979"/>
<path d="M1.39966 10.2391H0.0273438V8.8478H1.39966V10.2391Z" fill="#ECD979"/>
<path d="M42.5686 8.84781H41.1963V7.4565H42.5686V8.84781Z" fill="#ECD979"/>
<path d="M41.1965 8.84781H39.8242V7.4565H41.1965V8.84781Z" fill="#ECD979"/>
<path d="M28.8455 8.84781H27.4731V7.4565H28.8455V8.84781Z" fill="#ECD979"/>
<path d="M27.4734 8.84781H26.1011V7.4565H27.4734V8.84781Z" fill="#ECD979"/>
<path d="M26.1008 8.84781H24.7285V7.4565H26.1008V8.84781Z" fill="#ECD979"/>
<path d="M17.8674 8.84781H16.4951V7.4565H17.8674V8.84781Z" fill="#ECD979"/>
<path d="M16.4949 8.84781H15.1226V7.4565H16.4949V8.84781Z" fill="#ECD979"/>
<path d="M15.1228 8.84781H13.7505V7.4565H15.1228V8.84781Z" fill="#ECD979"/>
<path d="M2.77173 8.84781H1.39941V7.4565H2.77173V8.84781Z" fill="#ECD979"/>
<path d="M1.39966 8.84781H0.0273438V7.4565H1.39966V8.84781Z" fill="#ECD979"/>
<path d="M42.5686 7.45651H41.1963V6.06521H42.5686V7.45651Z" fill="#ECD979"/>
<path d="M41.1965 7.45651H39.8242V6.06521H41.1965V7.45651Z" fill="#ECD979"/>
<path d="M39.824 7.45651H38.4517V6.06521H39.824V7.45651Z" fill="#ECD979"/>
<path d="M30.218 7.45651H28.8457V6.06521H30.218V7.45651Z" fill="#ECD979"/>
<path d="M28.8455 7.45651H27.4731V6.06521H28.8455V7.45651Z" fill="#ECD979"/>
<path d="M27.4734 7.45651H26.1011V6.06521H27.4734V7.45651Z" fill="#ECD979"/>
<path d="M23.3562 7.45651H21.9839V6.06521H23.3562V7.45651Z" fill="#ECD979"/>
<path d="M20.6121 7.45651H19.2397V6.06521H20.6121V7.45651Z" fill="#ECD979"/>
<path d="M16.4949 7.45651H15.1226V6.06521H16.4949V7.45651Z" fill="#ECD979"/>
<path d="M15.1228 7.45651H13.7505V6.06521H15.1228V7.45651Z" fill="#ECD979"/>
<path d="M13.7502 7.45651H12.3779V6.06521H13.7502V7.45651Z" fill="#ECD979"/>
<path d="M4.14429 7.45651H2.77197V6.06521H4.14429V7.45651Z" fill="#ECD979"/>
<path d="M2.77173 7.45651H1.39941V6.06521H2.77173V7.45651Z" fill="#ECD979"/>
<path d="M1.39966 7.45651H0.0273438V6.06521H1.39966V7.45651Z" fill="#ECD979"/>
<path d="M41.1965 6.06522H39.8242V4.67391H41.1965V6.06522Z" fill="#ECD979"/>
<path d="M39.824 6.06522H38.4517V4.67391H39.824V6.06522Z" fill="#ECD979"/>
<path d="M38.4519 6.06522H37.0796V4.67391H38.4519V6.06522Z" fill="#ECD979"/>
<path d="M31.5901 6.06522H30.2178V4.67391H31.5901V6.06522Z" fill="#ECD979"/>
<path d="M30.218 6.06522H28.8457V4.67391H30.218V6.06522Z" fill="#ECD979"/>
<path d="M28.8455 6.06522H27.4731V4.67391H28.8455V6.06522Z" fill="#ECD979"/>
<path d="M24.7283 6.06522H23.356V4.67391H24.7283V6.06522Z" fill="#ECD979"/>
<path d="M23.3562 6.06522H21.9839V4.67391H23.3562V6.06522Z" fill="#ECD979"/>
<path d="M20.6121 6.06522H19.2397V4.67391H20.6121V6.06522Z" fill="#ECD979"/>
<path d="M19.2395 6.06522H17.8672V4.67391H19.2395V6.06522Z" fill="#ECD979"/>
<path d="M15.1228 6.06522H13.7505V4.67391H15.1228V6.06522Z" fill="#ECD979"/>
<path d="M13.7502 6.06522H12.3779V4.67391H13.7502V6.06522Z" fill="#ECD979"/>
<path d="M12.3782 6.06522H11.0059V4.67391H12.3782V6.06522Z" fill="#ECD979"/>
<path d="M5.51636 6.06522H4.14404V4.67391H5.51636V6.06522Z" fill="#ECD979"/>
<path d="M4.14429 6.06522H2.77197V4.67391H4.14429V6.06522Z" fill="#ECD979"/>
<path d="M2.77173 6.06522H1.39941V4.67391H2.77173V6.06522Z" fill="#ECD979"/>
<path d="M39.824 4.67389H38.4517V3.28259H39.824V4.67389Z" fill="#ECD979"/>
<path d="M38.4519 4.67389H37.0796V3.28259H38.4519V4.67389Z" fill="#ECD979"/>
<path d="M37.0794 4.67389H35.707V3.28259H37.0794V4.67389Z" fill="#ECD979"/>
<path d="M26.1008 4.67389H24.7285V3.28259H26.1008V4.67389Z" fill="#ECD979"/>
<path d="M24.7283 4.67389H23.356V3.28259H24.7283V4.67389Z" fill="#ECD979"/>
<path d="M23.3562 4.67389H21.9839V3.28259H23.3562V4.67389Z" fill="#ECD979"/>
<path d="M20.6121 4.67389H19.2397V3.28259H20.6121V4.67389Z" fill="#ECD979"/>
<path d="M19.2395 4.67389H17.8672V3.28259H19.2395V4.67389Z" fill="#ECD979"/>
<path d="M17.8674 4.67389H16.4951V3.28259H17.8674V4.67389Z" fill="#ECD979"/>
<path d="M6.88892 4.67389H5.5166V3.28259H6.88892V4.67389Z" fill="#ECD979"/>
<path d="M5.51636 4.67389H4.14404V3.28259H5.51636V4.67389Z" fill="#ECD979"/>
<path d="M4.14429 4.67389H2.77197V3.28259H4.14429V4.67389Z" fill="#ECD979"/>
<path d="M43.9412 3.28259H42.5688V1.89129H43.9412V3.28259Z" fill="#ECD979"/>
<path d="M38.4519 3.28259H37.0796V1.89129H38.4519V3.28259Z" fill="#ECD979"/>
<path d="M37.0794 3.28259H35.707V1.89129H37.0794V3.28259Z" fill="#ECD979"/>
<path d="M35.7073 3.28259H34.335V1.89129H35.7073V3.28259Z" fill="#ECD979"/>
<path d="M26.1008 3.28259H24.7285V1.89129H26.1008V3.28259Z" fill="#ECD979"/>
<path d="M24.7283 3.28259H23.356V1.89129H24.7283V3.28259Z" fill="#ECD979"/>
<path d="M19.2395 3.28259H17.8672V1.89129H19.2395V3.28259Z" fill="#ECD979"/>
<path d="M17.8674 3.28259H16.4951V1.89129H17.8674V3.28259Z" fill="#ECD979"/>
<path d="M8.26099 3.28259H6.88867V1.89129H8.26099V3.28259Z" fill="#ECD979"/>
<path d="M6.88892 3.28259H5.5166V1.89129H6.88892V3.28259Z" fill="#ECD979"/>
<path d="M5.51636 3.28259H4.14404V1.89129H5.51636V3.28259Z" fill="#ECD979"/>
<path d="M43.9412 1.8913H42.5688V0.499992H43.9412V1.8913Z" fill="#ECD979"/>
<path d="M42.5686 1.8913H41.1963V0.499992H42.5686V1.8913Z" fill="#ECD979"/>
<path d="M37.0794 1.8913H35.707V0.499992H37.0794V1.8913Z" fill="#ECD979"/>
<path d="M35.7073 1.8913H34.335V0.499992H35.7073V1.8913Z" fill="#ECD979"/>
<path d="M34.3347 1.8913H32.9624V0.499992H34.3347V1.8913Z" fill="#ECD979"/>
<path d="M26.1008 1.8913H24.7285V0.499992H26.1008V1.8913Z" fill="#ECD979"/>
<path d="M17.8674 1.8913H16.4951V0.499992H17.8674V1.8913Z" fill="#ECD979"/>
<path d="M9.63355 1.8913H8.26123V0.499992H9.63355V1.8913Z" fill="#ECD979"/>
<path d="M8.26099 1.8913H6.88867V0.499992H8.26099V1.8913Z" fill="#ECD979"/>
<path d="M6.88892 1.8913H5.5166V0.499992H6.88892V1.8913Z" fill="#ECD979"/>
<path d="M1.39966 1.8913H0.0273438V0.499992H1.39966V1.8913Z" fill="#ECD979"/>
</svg>

